<svg xmlns="http://www.w3.org/2000/svg" viewBox="0 0 18 18"><defs><style>.cls-1{fill:#ccc;}</style></defs><title>Asset 15</title><g id="Layer_2" data-name="Layer 2"><g id="Layer_1-2" data-name="Layer 1"><path class="cls-1" d="M14.63,5.63h-1a6.17,6.17,0,0,0,0,2.25h1a1.13,1.13,0,0,0,0-2.25Zm0-5.62A12.53,12.53,0,0,1,6.75,3.38H3.38a3.38,3.38,0,0,0,0,6.75,1.1,1.1,0,0,0,.64,1l0,0a1.11,1.11,0,0,0,.44.09L3.38,16.88A1.12,1.12,0,0,0,4.5,18H6.75a1.13,1.13,0,0,0,0-2.25l.9-4.5h.23a1.11,1.11,0,0,0,1.06-.8,11.66,11.66,0,0,1,5.69,3.05c1.86,0,3.38-3,3.38-6.75S16.49,0,14.63,0ZM3.38,7.88H2.25V5.63H3.38Zm11.25,3.38c-1.24,0-2.25-2-2.25-4.5s1-4.5,2.25-4.5,2.25,2,2.25,4.5S15.87,11.25,14.63,11.25Z"/></g></g></svg>