<svg xmlns="http://www.w3.org/2000/svg" viewBox="0 0 18 18"><defs><style>.cls-1{fill:#ccc;}</style></defs><title>Asset 14</title><g id="Layer_2" data-name="Layer 2"><g id="Layer_1-2" data-name="Layer 1"><path class="cls-1" d="M14.63,18H3.38A3.38,3.38,0,0,1,0,14.63V3.38A3.37,3.37,0,0,1,2.25.21V1.69a1.69,1.69,0,0,0,3.38,0V0h6.75V1.69a1.69,1.69,0,0,0,3.38,0V.21A3.37,3.37,0,0,1,18,3.38V14.63A3.38,3.38,0,0,1,14.63,18ZM15.75,5.63H2.25v9a1.12,1.12,0,0,0,1.13,1.13H14.63a1.12,1.12,0,0,0,1.13-1.12Zm-4.5,5.63H13.5V13.5H11.25Zm0-3.37H13.5v2.25H11.25ZM7.88,11.25h2.25V13.5H7.88Zm0-3.37h2.25v2.25H7.88ZM4.5,11.25H6.75V13.5H4.5Zm0-3.37H6.75v2.25H4.5Zm9.56-5.62a.56.56,0,0,1-.56-.56V0h1.13V1.69A.56.56,0,0,1,14.06,2.25Zm-10.12,0a.56.56,0,0,1-.56-.56V0H4.5V1.69A.56.56,0,0,1,3.94,2.25Z"/></g></g></svg>