<?xml version="1.0" encoding="utf-8"?>
<!-- Generator: Adobe Illustrator 21.0.2, SVG Export Plug-In . SVG Version: 6.00 Build 0)  -->
<svg version="1.1" id="Layer_1" xmlns="http://www.w3.org/2000/svg" xmlns:xlink="http://www.w3.org/1999/xlink" x="0px" y="0px"
	 viewBox="0 0 30 30" style="enable-background:new 0 0 30 30;" xml:space="preserve">
<style type="text/css">
	.st0{fill:#DD5F4C;}
</style>
<title>logoAsset 2</title>
<g>
	<path class="st0" d="M17.2,13c0.4-0.5,0.7-1.1,0.6-1.8c0-1.4-1-2.1-3.1-2.1c-0.5,0-1.1,0.1-1.6,0.2v4.3h2.1
		C15.9,13.7,16.6,13.5,17.2,13z"/>
	<path class="st0" d="M15.4,16l-2.3,0v4.8c0.6,0.1,1.1,0.2,1.7,0.2c1,0.1,2-0.1,2.8-0.6c0.6-0.5,0.9-1.2,0.9-2
		c0.1-0.7-0.2-1.3-0.7-1.8C17,16.1,16.2,15.9,15.4,16z"/>
	<path class="st0" d="M15,0.8c-7.8,0-14,6.3-14,14v0.3c0,7.8,6.3,14,14,14s14-6.3,14-14v-0.3C29,7.1,22.8,0.8,15,0.8z M19.8,22
		c-1.5,1-3.2,1.4-5,1.3c-0.9,0-1.8-0.1-2.7-0.2c-0.6-0.1-1.2-0.2-1.7-0.5l-0.5-0.3V10.5c-0.3,0.2-0.6,0.3-0.8,0.5s-0.4,0.3-0.6,0.4
		l-0.2,0.1v-3l0.3-0.2C8.9,8.2,9.2,8,9.5,7.9c0.4-0.2,0.9-0.4,1.3-0.6c0.6-0.2,1.2-0.4,1.8-0.5c0.7-0.1,1.5-0.2,2.2-0.2
		c1.6-0.1,3.2,0.3,4.6,1.1c1.1,0.8,1.7,2,1.6,3.3c0,1.4-0.7,2.7-1.9,3.5c1.6,0.5,2.7,2,2.6,3.7C21.7,19.8,21,21.2,19.8,22z"/>
</g>
</svg>
