<svg xmlns="http://www.w3.org/2000/svg" viewBox="0 0 30 30"><defs><style>.cls-1{fill:#dd5f4c;}</style></defs><title>logoAsset 2</title><g id="Layer_2" data-name="Layer 2"><g id="Layer_1-2" data-name="Layer 1"><path class="cls-1" d="M15.35,15.77H13v4.58a7,7,0,0,0,1.75.2q3.53,0,3.53-2.55Q18.32,15.77,15.35,15.77Z"/><path class="cls-1" d="M17.7,11.62q0-2.07-3-2.07A9.07,9.07,0,0,0,13,9.73v4.16h2.11Q17.7,13.89,17.7,11.62Z"/><path class="cls-1" d="M24.63,0H5.37A5.37,5.37,0,0,0,0,5.37V24.63A5.37,5.37,0,0,0,5.37,30H24.63A5.37,5.37,0,0,0,30,24.63V5.37A5.37,5.37,0,0,0,24.63,0ZM19.21,21.25a7,7,0,0,1-4.36,1.2,12.11,12.11,0,0,1-2.35-.21A6.55,6.55,0,0,1,11,21.83l-.42-.2v-11q-.4.22-.75.45l-.51.35-.14.14V9.23L9.46,9a8,8,0,0,1,.72-.41,9.15,9.15,0,0,1,1.16-.51,10.53,10.53,0,0,1,1.56-.4,10.22,10.22,0,0,1,1.93-.18,6.57,6.57,0,0,1,3.94,1,3.45,3.45,0,0,1,1.38,3,3.46,3.46,0,0,1-1.77,3.13A3.35,3.35,0,0,1,20.79,18,3.89,3.89,0,0,1,19.21,21.25Z"/></g></g></svg>