<svg xmlns="http://www.w3.org/2000/svg" viewBox="0 0 116.21 32"><defs><style>.cls-1{fill:#ee6e7a;}</style></defs><title>logoAsset 1</title><g id="Layer_2" data-name="Layer 2"><g id="Layer_1-2" data-name="Layer 1"><path class="cls-1" d="M13.61,15.43a4.19,4.19,0,0,0-1.72-1.13,23.91,23.91,0,0,0-2.34-.72Q8.26,13.25,7,12.8a11.31,11.31,0,0,1-2.34-1.12A4.88,4.88,0,0,1,2.92,9.75a6.51,6.51,0,0,1-.65-3A5.73,5.73,0,0,1,4.41,2a9.15,9.15,0,0,1,6-1.75,17.36,17.36,0,0,1,3.13.26,9.14,9.14,0,0,1,2,.52l.56.23V5.57l-.75-.44a11.24,11.24,0,0,0-2-.72A9.74,9.74,0,0,0,10.49,4Q6.75,4,6.75,6.66a2.43,2.43,0,0,0,.52,1.59,3,3,0,0,0,1.36.93q.84.29,1.92.59t2.21.52A9.72,9.72,0,0,1,15,11a9,9,0,0,1,1.92,1.2,4.89,4.89,0,0,1,1.36,2,7.91,7.91,0,0,1,.53,3,6.51,6.51,0,0,1-2.66,5.36,10.46,10.46,0,0,1-6.66,2.08,10.21,10.21,0,0,1-7-2.2A7.29,7.29,0,0,1,0,16.72,9.4,9.4,0,0,1,.15,15a8.06,8.06,0,0,1,.28-1.16l.16-.36H4.75a8.14,8.14,0,0,0-.43,3Q4.33,21,9.51,21A5.69,5.69,0,0,0,13,20a3.24,3.24,0,0,0,1.26-2.75A2.69,2.69,0,0,0,13.61,15.43Z"/><path class="cls-1" d="M20.26,17a40.4,40.4,0,0,1,.56-6.66,37.11,37.11,0,0,1,1.11-5l.56-1.67h4.1q-.66,2.23-1.25,4.89h5.08v3.08H24.82A35.31,35.31,0,0,0,24.42,17,5.33,5.33,0,0,0,25,20.1a2,2,0,0,0,1.69.75,5.17,5.17,0,0,0,2.9-1,8.72,8.72,0,0,0,2.18-2l.75-1v4.72l-.26.33a8.35,8.35,0,0,1-.77.72,8.57,8.57,0,0,1-1.28.92,8.32,8.32,0,0,1-1.74.72,7.37,7.37,0,0,1-2.18.33Q20.26,24.66,20.26,17Z"/><path class="cls-1" d="M32.59,10.79a7.91,7.91,0,0,1,6.26-2.66A11.91,11.91,0,0,1,42,8.51a5.14,5.14,0,0,1,1.82.77l.46.36V20q0,1.25,1.18,1.25a2.66,2.66,0,0,0,1.77-.8,6.58,6.58,0,0,0,1.34-1.62L49,18v4l-.2.28a6.56,6.56,0,0,1-.57.62,6.07,6.07,0,0,1-1,.79,5.85,5.85,0,0,1-1.38.62,5.66,5.66,0,0,1-1.77.28A3.53,3.53,0,0,1,40.81,23a5,5,0,0,1-3.9,1.67,6.23,6.23,0,0,1-4.9-2,7.59,7.59,0,0,1-1.75-5.25A9.73,9.73,0,0,1,32.59,10.79Zm6.77,9.56a3.56,3.56,0,0,0,.8-2.51V12.1A6.71,6.71,0,0,0,38.78,12q-4.43,0-4.43,5.41,0,3.84,2.72,3.84A3,3,0,0,0,39.36,20.34Z"/><path class="cls-1" d="M48.6,10.43a6.08,6.08,0,0,1,4.93-2.3A5.4,5.4,0,0,1,57,9.21V8.56h4.1V19.74A11.54,11.54,0,0,0,63,18.51a9.34,9.34,0,0,0,1.25-1.13l.36-.43v3.7a9.94,9.94,0,0,1-3.51,2.13v.39A9.42,9.42,0,0,1,59,29.52,7.25,7.25,0,0,1,53.14,32a5.53,5.53,0,0,1-3.74-1.16,4,4,0,0,1-1.34-3.23,5,5,0,0,1,2.82-4.43q-4.16-1.8-4.16-7A8.84,8.84,0,0,1,48.6,10.43ZM57,21V15a3.63,3.63,0,0,0-.82-2.56A2.81,2.81,0,0,0,54,11.54a2.72,2.72,0,0,0-2.29,1.21,5.64,5.64,0,0,0-.89,3.38,4.77,4.77,0,0,0,1.33,3.72A5.11,5.11,0,0,0,55.7,21,9.11,9.11,0,0,0,57,21Zm-1.13,6.7a6,6,0,0,0,1.1-3.59q-5,1-5,3.34a1.32,1.32,0,0,0,1.51,1.48A3,3,0,0,0,55.84,27.69Z"/><path class="cls-1" d="M64.79,10.43a6.08,6.08,0,0,1,4.93-2.3,5.4,5.4,0,0,1,3.44,1.08V8.56h4.1V19.74a11.54,11.54,0,0,0,1.9-1.23,9.36,9.36,0,0,0,1.25-1.13l.36-.43v3.7a10,10,0,0,1-3.51,2.13v.39a9.43,9.43,0,0,1-2.11,6.34A7.25,7.25,0,0,1,69.33,32a5.52,5.52,0,0,1-3.74-1.16,4,4,0,0,1-1.34-3.23,5,5,0,0,1,2.82-4.43q-4.16-1.8-4.16-7A8.84,8.84,0,0,1,64.79,10.43ZM73.17,21V15a3.63,3.63,0,0,0-.82-2.56,2.81,2.81,0,0,0-2.16-.89,2.72,2.72,0,0,0-2.3,1.21A5.64,5.64,0,0,0,67,16.13a4.77,4.77,0,0,0,1.33,3.72A5.11,5.11,0,0,0,71.89,21,9.12,9.12,0,0,0,73.17,21ZM72,27.69a6,6,0,0,0,1.1-3.59q-5,1-5,3.34a1.32,1.32,0,0,0,1.51,1.48A3,3,0,0,0,72,27.69Z"/><path class="cls-1" d="M81.54,4.44Q83.82,0,87.63,0q4.23,0,4.23,5.15a14.59,14.59,0,0,1-2.33,8.11A19.13,19.13,0,0,1,83.86,19,3,3,0,0,0,87,21.15a6,6,0,0,0,2.28-.44,7,7,0,0,0,1.85-1.07,13.45,13.45,0,0,0,1.33-1.25,10.33,10.33,0,0,0,.87-1l.26-.46v4.23l-.3.38a9.13,9.13,0,0,1-.87.85A11,11,0,0,1,91,23.43a8.27,8.27,0,0,1-1.89.85,7.42,7.42,0,0,1-2.33.38,6.75,6.75,0,0,1-5.64-2.36q-1.87-2.36-1.87-6.72A24.26,24.26,0,0,1,81.54,4.44ZM84.63,7a24.44,24.44,0,0,0-1.26,8.16,13.33,13.33,0,0,0,3.36-4.28,12.38,12.38,0,0,0,1.36-5.75q0-1.51-.85-1.51Q85.86,3.67,84.63,7Z"/><path class="cls-1" d="M106.67,21.85a12.32,12.32,0,0,1-1,.75,11.08,11.08,0,0,1-1.59,1,11.91,11.91,0,0,1-2.11.75,9.8,9.8,0,0,1-2.56.34,7.25,7.25,0,0,1-5.64-2.23,8.37,8.37,0,0,1-2-5.87,8.87,8.87,0,0,1,2.08-6A6.87,6.87,0,0,1,99.3,8.13,5.09,5.09,0,0,1,103,9.43a4.52,4.52,0,0,1,1.31,3.36,5.63,5.63,0,0,1-.66,2.72,5.87,5.87,0,0,1-1.79,2,11.18,11.18,0,0,1-2.44,1.31,14.67,14.67,0,0,1-2.85.77A4,4,0,0,0,100,20.89a6.86,6.86,0,0,0,2.38-.43,7.57,7.57,0,0,0,2-1,17,17,0,0,0,1.44-1.21,7.17,7.17,0,0,0,.93-1l.33-.43v4.75Zm-10.85-5a8,8,0,0,0,3.62-1.39,3.09,3.09,0,0,0,1.36-2.54,1.7,1.7,0,0,0-.44-1.28,1.61,1.61,0,0,0-1.16-.43,2.86,2.86,0,0,0-2.41,1.39,6.87,6.87,0,0,0-1,4Z"/><path class="cls-1" d="M116.21,12.16a8.17,8.17,0,0,0-1.71-.2,3.31,3.31,0,0,0-3,1.54,7.78,7.78,0,0,0-1,4.26V24.3h-4.16V8.56h4.16v2.2l.16-.28a4.76,4.76,0,0,1,.49-.64A5.81,5.81,0,0,1,112,9a4.53,4.53,0,0,1,1.18-.62,4.27,4.27,0,0,1,1.52-.28l1.48.13Z"/></g></g></svg>