<svg xmlns="http://www.w3.org/2000/svg" viewBox="0 0 20.57 24"><defs><style>.cls-1{fill:#ccc;}</style></defs><title>Asset 20</title><g id="Layer_2" data-name="Layer 2"><g id="Layer_1-2" data-name="Layer 1"><path class="cls-1" d="M10.29,24C4.61,24,0,21.7,0,18.86A3.68,3.68,0,0,1,1.71,16V12A8.57,8.57,0,0,1,6.93,4.11a3.35,3.35,0,0,1-.07-.69,3.43,3.43,0,1,1,6.86,0,3.35,3.35,0,0,1-.07.69A8.58,8.58,0,0,1,18.86,12v4a3.68,3.68,0,0,1,1.71,2.84C20.57,21.7,16,24,10.29,24Zm0-8.57c-3.79,0-6.86,1.54-6.86,3.43s3.07,3.43,6.86,3.43,6.86-1.54,6.86-3.43S14.07,15.43,10.29,15.43Zm0,5.14a3.42,3.42,0,0,1-3.36-2.79,8.54,8.54,0,0,1,3.36-.64,8.55,8.55,0,0,1,3.37.64A3.43,3.43,0,0,1,10.29,20.57Z"/></g></g></svg>