<svg xmlns="http://www.w3.org/2000/svg" viewBox="0 0 24 24"><defs><style>.cls-1{fill:#ccc;}</style></defs><title>Asset 19</title><g id="Layer_2" data-name="Layer 2"><g id="Layer_1-2" data-name="Layer 1"><path class="cls-1" d="M23.12,5.12,20.89,7.36,16.58,3.18l2.3-2.3a3,3,0,0,1,4.24,4.24ZM19.58,8.66l-9.23,9.21L4.5,19.5l1.6-5.87,9.18-9.16Zm3.54-3.54L20.89,7.36,16.58,3.18l2.3-2.3a3,3,0,0,1,4.24,4.24ZM19.58,8.66l-9.23,9.21L4.5,19.5l1.6-5.87,9.18-9.16ZM21,11.48l3-3v11A4.5,4.5,0,0,1,19.5,24H4.5A4.5,4.5,0,0,1,0,19.5V4.5A4.5,4.5,0,0,1,4.5,0h11l-3,3h-8A1.5,1.5,0,0,0,3,4.5v15A1.5,1.5,0,0,0,4.5,21h15A1.5,1.5,0,0,0,21,19.5Z"/></g></g></svg>