<svg xmlns="http://www.w3.org/2000/svg" viewBox="0 0 23.1 18.18"><defs><style>.cls-1{fill:#ccc;}</style></defs><title>Asset 13</title><g id="Layer_2" data-name="Layer 2"><g id="Layer_1-2" data-name="Layer 1"><path class="cls-1" d="M14.68,4.77a2.27,2.27,0,0,1,0,4A5.22,5.22,0,0,1,13.39,12v0h0a5.37,5.37,0,0,1-1,.9v.22a10.34,10.34,0,0,1,4.1,1.7,5.4,5.4,0,0,1,1.25,1.28H23.1c0-2-2.28-3.58-5.39-4.11v-.8a4.3,4.3,0,0,0,2.16-3.72V7.44a1.59,1.59,0,0,0,0-3V4.31a4.29,4.29,0,0,0-7-3.33A5.26,5.26,0,0,1,14.68,4.77Z"/><path class="cls-1" d="M16.8,18.18H0c0-2.17,2.54-4,6-4.58v-.89A4.78,4.78,0,0,1,3.6,8.58V8.46a1.77,1.77,0,0,1,0-3.36V5a4.8,4.8,0,1,1,9.6,0V5.1a1.77,1.77,0,0,1,0,3.36v.12a4.78,4.78,0,0,1-2.4,4.13v.89C14.26,14.19,16.8,16,16.8,18.18Z"/></g></g></svg>